<svg width="220" height="56" viewBox="0 0 220 56" fill="none" xmlns="http://www.w3.org/2000/svg">
  <rect width="220" height="56" rx="12" fill="#0A0E1A"/>
  <g fill="#FAFAF7">
    <path d="M20.2 40.4C12.9 40.4 8 35.5 8 28C8 20.5 12.9 15.6 20.2 15.6C25.2 15.6 29 18 30.9 22.3L25.9 24.4C24.8 22.1 22.8 20.8 20.2 20.8C16.2 20.8 13.5 23.7 13.5 28C13.5 32.3 16.2 35.2 20.2 35.2C22.8 35.2 24.8 33.9 25.9 31.6L30.9 33.7C29 38 25.2 40.4 20.2 40.4Z"/>
    <path d="M50.7 40.4C43.8 40.4 39.1 35.8 39.1 29.4C39.1 23 43.8 18.4 50.7 18.4C57.6 18.4 62.3 23 62.3 29.4C62.3 35.8 57.6 40.4 50.7 40.4ZM50.7 35.7C54.3 35.7 57 33.1 57 29.4C57 25.7 54.3 23.1 50.7 23.1C47.1 23.1 44.4 25.7 44.4 29.4C44.4 33.1 47.1 35.7 50.7 35.7Z"/>
    <path d="M81.4 40.4C74.8 40.4 70.2 35.9 70.2 29.4C70.2 22.9 74.8 18.4 81.4 18.4C84.2 18.4 86.6 19.2 88.3 20.9V9.6H93.5V39.7H88.5V37.2C86.8 39.2 84.3 40.4 81.4 40.4ZM82.1 35.7C85.8 35.7 88.5 33.1 88.5 29.4C88.5 25.7 85.8 23.1 82.1 23.1C78.5 23.1 75.6 25.7 75.6 29.4C75.6 33.1 78.5 35.7 82.1 35.7Z"/>
    <path d="M114.6 40.4C107.7 40.4 103.2 35.9 103.2 29.4C103.2 22.9 107.7 18.4 114.3 18.4C120.6 18.4 124.9 22.7 124.9 29.1C124.9 29.8 124.8 30.6 124.7 31.1H108.4C109 34.2 111.4 36 114.7 36C117 36 118.7 35.2 120.2 33.5L123.1 36.7C121.1 39.2 118.2 40.4 114.6 40.4ZM108.4 27.4H119.8C119.4 24.5 117.3 22.7 114.3 22.7C111.4 22.7 109.2 24.6 108.4 27.4Z"/>
  </g>
  <g transform="translate(131,6)">
    <circle cx="22" cy="22" r="20" stroke="#1F4BFF" stroke-width="6"/>
    <rect x="19" y="4" width="6" height="18" rx="3" fill="#D9FF3C"/>
  </g>
  <g fill="#FAFAF7">
    <path d="M188.1 40V28C188.1 24.9 186.3 23.1 183.5 23.1C180.7 23.1 178.4 25.1 178.4 28.7V40H173.2V18.9H178.2V21.6C179.8 19.5 182.3 18.4 185.3 18.4C190.5 18.4 193.3 21.4 193.3 27V40H188.1Z"/>
  </g>
</svg>
